<svg id="Layer_1" enable-background="new 0 0 511.866 511.866" height="512" viewBox="0 0 511.866 511.866" width="512" xmlns="http://www.w3.org/2000/svg"><g><path d="m409.394 248.314-145.677-241.072c-2.754-4.557-7.714-7.316-13.039-7.241-5.323.071-10.21 2.959-12.841 7.588l-137.796 242.509c-16.375 28.819-23.362 53.552-23.362 82.7 0 98.739 80.413 179.068 179.255 179.068s179.255-80.33 179.255-179.068c-.001-34.692-10.313-58.864-25.795-84.484zm-153.461 233.552c-82.3 0-149.255-66.872-149.255-149.068 0-23.905 5.634-43.571 19.446-67.879l125.154-220.257 132.44 219.168c13.255 21.934 21.47 41.122 21.47 68.968 0 82.197-66.955 149.068-149.255 149.068z"/></g></svg>