<svg height="511pt" viewBox="0 1 511 511.999" width="511pt" xmlns="http://www.w3.org/2000/svg"><path d="m455.957031 371.078125v-230.15625c32.117188-6.910156 56.261719-35.511719 56.261719-69.660156 0-39.292969-31.964844-71.261719-71.261719-71.261719-39.292969 0-71.261719 31.96875-71.261719 71.261719 0 34.148437 24.148438 62.75 56.261719 69.660156v110.082031h-154.613281v-110.082031c32.117188-6.910156 56.261719-35.511719 56.261719-69.660156 0-39.292969-31.964844-71.261719-71.261719-71.261719-39.292969 0-71.261719 31.96875-71.261719 71.261719 0 34.148437 24.148438 62.75 56.261719 69.660156v110.082031h-154.582031v-110.082031c32.113281-6.910156 56.261719-35.511719 56.261719-69.660156 0-39.292969-31.96875-71.261719-71.261719-71.261719s-71.261719 31.96875-71.261719 71.261719c0 34.148437 24.148438 62.75 56.261719 69.660156v125.082031c0 8.285156 6.714843 15 15 15h169.582031v90.074219c-32.113281 6.910156-56.261719 35.511719-56.261719 69.660156 0 39.292969 31.96875 71.261719 71.261719 71.261719 39.296875 0 71.261719-31.96875 71.261719-71.261719 0-34.148437-24.148438-62.75-56.261719-69.660156v-90.074219h154.613281v90.074219c-32.113281 6.910156-56.261719 35.511719-56.261719 69.660156 0 39.292969 31.96875 71.261719 71.261719 71.261719 39.296875 0 71.261719-31.96875 71.261719-71.261719 0-34.148437-24.148438-62.75-56.261719-69.660156zm-240.871093-299.816406c0-22.75 18.507812-41.261719 41.257812-41.261719s41.261719 18.511719 41.261719 41.261719-18.511719 41.261719-41.261719 41.261719-41.257812-18.511719-41.257812-41.261719zm-184.585938 0c0-22.75 18.511719-41.261719 41.261719-41.261719s41.261719 18.511719 41.261719 41.261719-18.511719 41.261719-41.261719 41.261719-41.261719-18.511719-41.261719-41.261719zm267.105469 369.476562c0 22.75-18.507813 41.261719-41.261719 41.261719-22.75 0-41.257812-18.511719-41.257812-41.261719s18.507812-41.257812 41.257812-41.257812c22.753906 0 41.261719 18.507812 41.261719 41.257812zm102.09375-369.476562c0-22.75 18.507812-41.261719 41.257812-41.261719 22.753907 0 41.261719 18.511719 41.261719 41.261719s-18.507812 41.261719-41.261719 41.261719c-22.75 0-41.257812-18.511719-41.257812-41.261719zm41.257812 410.738281c-22.75 0-41.257812-18.511719-41.257812-41.261719s18.507812-41.257812 41.257812-41.257812c22.753907 0 41.261719 18.507812 41.261719 41.257812s-18.507812 41.261719-41.261719 41.261719zm0 0"/></svg>